<svg xmlns="http://www.w3.org/2000/svg" xmlns:xlink="http://www.w3.org/1999/xlink" version="1.1" x="0px" y="0px" viewBox="0 0 100 125" enable-background="new 0 0 100 100" xml:space="preserve">
    <path d="M24.1,25.3c-0.8,0.8-2.2,0.9-3,0c-0.8-0.8-0.9-2.2,0-3c15-15.3,39.4-15.9,55-1.5l0-2.8c0-1.2,0.9-2.1,2.1-2.1c0,0,0,0,0,0  c1.2,0,2.1,0.9,2.1,2.1l0.1,7.8c0,1.2-0.9,2.1-2.1,2.1l-7.8,0.1c0,0,0,0,0,0c-1.2,0-2.1-0.9-2.1-2.1c0-1.2,0.9-2.1,2.1-2.1l2.7,0  C59.1,11.1,37.4,11.7,24.1,25.3z M49.9,89.6c10.6-0.1,20.5-4.4,27.9-11.9c0.8-0.8,0.8-2.2,0-3c-0.8-0.8-2.2-0.8-3,0  c-6.6,6.8-15.4,10.5-24.9,10.6c-0.1,0-0.3,0-0.4,0c-8.8,0-17.2-3.2-23.7-9.1l2.7,0c1.2,0,2.1-1,2.1-2.1c0-1.2-1-2.1-2.1-2.1  c0,0,0,0,0,0L20.5,72c-1.2,0-2.1,1-2.1,2.1l0.1,7.8c0,1.2,1,2.1,2.1,2.1c0,0,0,0,0,0c1.2,0,2.1-1,2.1-2.1l0-2.8  c7.3,6.7,16.7,10.4,26.7,10.4C49.6,89.6,49.7,89.6,49.9,89.6z M38.9,71.2c1.2,0,2.1-1,2.1-2.1v-4.6c0-1.6-0.7-3.1-2-4.1  c-3.4-2.8-7.1-4.9-8.9-5.9v-4.4c0.9-0.9,1.3-2.2,1.3-3.5v-6.7c0-4.5-3.7-8.2-8.2-8.2h-1.4c-4.5,0-8.2,3.7-8.2,8.2v6.7  c0,1.3,0.5,2.5,1.3,3.5v4.4c-1.8,1-5.5,3-8.9,5.9c-1.2,1-2,2.5-2,4.1v4.6c0,1.2,1,2.1,2.1,2.1s2.1-1,2.1-2.1v-4.6  c0-0.3,0.1-0.7,0.4-0.9c4-3.3,8.3-5.4,9.1-5.8c0.8-0.4,1.4-1.3,1.4-2.2v-6.5c0-0.7-0.4-1.4-0.9-1.8c-0.3-0.2-0.4-0.4-0.4-0.7v-6.7  c0-2.2,1.8-3.9,3.9-3.9h1.4c2.2,0,3.9,1.8,3.9,3.9v6.7c0,0.3-0.2,0.6-0.4,0.7c-0.6,0.4-0.9,1.1-0.9,1.8v6.5c0,0.9,0.5,1.8,1.4,2.2  c0.8,0.4,5.1,2.6,9.1,5.8c0.3,0.2,0.4,0.5,0.4,0.9v4.6C36.8,70.2,37.7,71.2,38.9,71.2z M81.6,47.4c-0.6,0.4-0.9,1.1-0.9,1.8v6.5  c0,0.9,0.5,1.8,1.4,2.2c0.8,0.4,5.1,2.6,9.1,5.8c0.3,0.2,0.4,0.5,0.4,0.9v4.6c0,1.2,1,2.1,2.1,2.1c1.2,0,2.1-1,2.1-2.1v-4.6  c0-1.6-0.7-3.1-2-4.1c-3.4-2.8-7.1-4.9-8.9-5.9v-4.4c0.9-0.9,1.3-2.2,1.3-3.5v-6.7c0-4.5-3.7-8.2-8.2-8.2h-1.4  c-4.5,0-8.2,3.7-8.2,8.2v6.7c0,1.3,0.5,2.5,1.3,3.5v4.4c-1.8,1-5.5,3-8.9,5.9c-1.2,1-2,2.5-2,4.1v4.6c0,1.2,1,2.1,2.1,2.1  c1.2,0,2.1-1,2.1-2.1v-4.6c0-0.3,0.1-0.7,0.4-0.9c4-3.3,8.3-5.4,9.1-5.8c0.8-0.4,1.4-1.3,1.4-2.2v-6.5c0-0.7-0.4-1.4-0.9-1.8  c-0.3-0.2-0.4-0.4-0.4-0.7v-6.7c0-2.2,1.8-3.9,3.9-3.9h1.4c2.2,0,3.9,1.8,3.9,3.9v6.7C82,46.9,81.9,47.2,81.6,47.4z"/>
</svg>
